<?xml version="1.0" standalone="no"?>
<!DOCTYPE svg PUBLIC "-//W3C//DTD SVG 20010904//EN"
 "http://www.w3.org/TR/2001/REC-SVG-20010904/DTD/svg10.dtd">
<svg version="1.0" xmlns="http://www.w3.org/2000/svg"
 width="284.000000pt" height="284.000000pt" viewBox="0 0 284.000000 284.000000"
 preserveAspectRatio="xMidYMid meet">
<metadata>
Created by potrace 1.11, written by Peter Selinger 2001-2013
</metadata>
<g transform="translate(0.000000,284.000000) scale(0.100000,-0.100000)"
fill="#000000" stroke="none">
<path d="M1185 2489 c-187 -60 -351 -114 -363 -121 -49 -26 -81 -70 -93 -127
-7 -31 -13 -58 -14 -61 -1 -3 -5 -21 -9 -40 -28 -137 -19 -123 -107 -152 -60
-20 -79 -23 -79 -13 0 18 -52 55 -82 57 -12 1 -75 -15 -138 -35 -136 -43 -161
-63 -165 -131 -2 -33 -12 -57 -36 -88 -18 -24 -37 -46 -42 -49 -5 -3 -9 -10
-9 -15 -1 -10 -2 -17 -16 -60 -5 -17 -9 -51 -8 -75 2 -36 273 -916 332 -1077
18 -48 79 -142 102 -156 8 -4 23 -17 33 -27 11 -11 22 -19 25 -19 3 0 24 -14
45 -31 21 -17 39 -28 39 -24 0 4 6 3 13 -3 7 -6 83 -11 187 -12 l175 -1 765
243 c421 133 767 245 770 249 3 4 18 11 33 14 15 4 27 11 27 16 0 5 7 9 15 9
26 0 148 132 177 190 40 84 49 118 54 205 3 81 -6 124 -69 315 -9 25 -29 88
-45 140 -71 224 -174 546 -178 555 -27 61 -98 143 -164 189 -25 17 -47 31 -50
32 -3 0 -18 7 -35 14 -16 7 -41 15 -55 17 -13 2 -29 8 -35 12 -21 16 -179 5
-256 -18 l-76 -23 -66 63 c-143 138 -146 139 -209 143 -45 3 -105 -13 -393
-105z m484 -378 c24 -7 55 -17 70 -23 14 -6 28 -12 31 -13 27 -7 113 -54 145
-79 209 -162 304 -391 269 -650 -19 -146 -70 -256 -169 -363 -140 -153 -311
-226 -525 -224 -30 1 -66 3 -80 6 -14 4 -36 8 -50 11 -51 10 -150 46 -172 63
-13 10 -31 21 -42 24 -30 12 -115 81 -121 100 -4 9 -10 15 -14 13 -4 -3 -34
37 -68 87 -59 89 -98 186 -111 277 -6 50 -6 179 1 215 32 167 96 287 205 386
66 60 81 71 127 94 22 11 42 23 45 26 8 10 169 61 177 56 5 -2 17 -1 28 3 29
11 202 5 254 -9z m-1236 -271 c4 -1 12 -3 19 -4 23 -2 78 -86 78 -119 0 -80
-55 -139 -133 -143 -106 -5 -166 87 -131 199 10 33 77 73 120 71 21 0 42 -2
47 -4z"/>
<path d="M1403 1914 c-63 -13 -144 -52 -190 -92 -15 -13 -35 -29 -43 -36 -29
-22 -130 -176 -115 -176 2 0 -3 -17 -12 -37 -15 -38 -20 -145 -10 -215 9 -55
29 -118 39 -118 4 0 8 -6 8 -13 0 -24 64 -103 123 -154 86 -73 177 -106 292
-106 117 0 145 5 224 45 127 64 233 200 261 335 11 53 9 150 -5 218 -3 17 -7
36 -7 43 -1 6 -5 12 -9 12 -4 0 -10 14 -14 30 -4 17 -10 30 -13 30 -4 0 -13
12 -20 28 -17 38 -58 80 -122 127 -30 22 -57 40 -60 41 -3 0 -17 6 -31 12 -88
36 -198 46 -296 26z"/>
</g>
</svg>
